<?xml version="1.0" encoding="UTF-8" standalone="no"?>
<svg id="svg4136" xmlns:rdf="http://www.w3.org/1999/02/22-rdf-syntax-ns#" xmlns="http://www.w3.org/2000/svg" xml:space="preserve" height="80" width="80" version="1.1" xmlns:cc="http://creativecommons.org/ns#" xmlns:dc="http://purl.org/dc/elements/1.1/" viewBox="0 0 80 80"><style id="style4138" type="text/css">
	.st0{fill:#8d8d8d;}
	.st1{fill:#7f91a3;}
    </style><g id="g4140"><path id="path4142" fill="#8d8d8d" class="st0" d="m20 25.1 10-9.8c0.3-0.3 0.3-0.6 0-0.8l-0.5-0.5c-0.3-0.3-0.6-0.3-0.8 0l-8.7 8.7-8.7-8.7c-0.3-0.3-0.6-0.3-0.8 0l-0.4 0.4c-0.3 0.3-0.3 0.6 0 0.8l8.9 8.8"/><path id="path4144" fill="#7f91a3" class="st1" d="m20 65.4 10-9.8c0.3-0.3 0.3-0.6 0-0.8l-0.5-0.5c-0.3-0.3-0.6-0.3-0.8 0l-8.7 8.7-8.7-8.7c-0.3-0.3-0.6-0.3-0.8 0l-0.4 0.4c-0.3 0.3-0.3 0.6 0 0.8l8.9 8.8"/><path id="path4142-1" d="m64.237 19.816-9.8-10c-0.3-0.3-0.6-0.3-0.8 0l-0.5 0.5c-0.3 0.3-0.3 0.6 0 0.8l8.7 8.7-8.7 8.7c-0.3 0.3-0.3 0.6 0 0.8l0.4 0.4c0.3 0.3 0.6 0.3 0.8 0l8.8-8.9" class="st0" fill="#8d8d8d"/><path id="path4144-4" d="m64.237 60.116-9.8-10c-0.3-0.3-0.6-0.3-0.8 0l-0.5 0.5c-0.3 0.3-0.3 0.6 0 0.8l8.7 8.7-8.7 8.7c-0.3 0.3-0.3 0.6 0 0.8l0.4 0.4c0.3 0.3 0.6 0.3 0.8 0l8.8-8.9" class="st1" fill="#7f91a3"/></g></svg>
