<?xml version="1.0" encoding="UTF-8" standalone="no"?>
<svg id="svg8" xmlns:rdf="http://www.w3.org/1999/02/22-rdf-syntax-ns#" xmlns="http://www.w3.org/2000/svg" height="40" width="300" version="1.1" xmlns:cc="http://creativecommons.org/ns#" xmlns:dc="http://purl.org/dc/elements/1.1/" viewBox="0 0 84.666667 11.288889">
 <g id="layer1" transform="translate(0 -285.71)" fill="#808080">
  <g id="g4600" transform="matrix(.25991 0 0 .25991 8.8233 281.48)">
   <g id="g4579" fill="#808080" transform="matrix(.67451 0 0 .67451 -33.475 3.8038)">
    <path id="path4571" d="m49.5 38c0-1.3-1.1-2.4-2.4-2.4h-30c-1.3 0-2.4 1.1-2.4 2.4s1.1 2.4 2.4 2.4h30c1.4 0 2.4-1.1 2.4-2.4z"/>
    <path id="path4573" d="m45.6 49.5c0-1.3-1.1-2.4-2.4-2.4h-15.8c-1.3 0-2.4 1.1-2.4 2.4s1.1 2.4 2.4 2.4h15.8c1.4 0 2.4-1.1 2.4-2.4z"/>
    <path id="path4575" d="m69.1 24.1h-61.7c-1.3 0-2.4 1.1-2.4 2.4s1.1 2.4 2.4 2.4h61.8c11.7 0 21.1 9.5 21.1 21.1s-9.5 21.1-21.1 21.1c-7.9 0-15.1-4.4-18.8-11.4-0.4-0.8-1.2-1.3-2.1-1.3h-12.3c-1.3 0-2.4 1.1-2.4 2.4s1.1 2.4 2.4 2.4h10.8c4.6 7.9 13.1 12.8 22.3 12.8 14.3-0.1 25.9-11.7 25.9-26s-11.6-25.9-25.9-25.9z"/>
    <path id="path4577" d="m69.1 33.1c-1.4 0-2.6 1.2-2.6 2.6v14.8 0.5c0 0.2 0.1 0.3 0.1 0.5 0.1 0.1 0.1 0.3 0.2 0.4s0.2 0.3 0.3 0.4l6.6 6.6c0.5 0.5 1.2 0.8 1.8 0.8 0.7 0 1.3-0.3 1.8-0.8 1-1 1-2.7 0-3.7l-5.9-5.9v-13.6c0.3-1.4-0.8-2.6-2.3-2.6z"/>
   </g>
  </g>
  <g id="text4627-2" stroke-width=".21741">
   <path id="path5683" d="m20.821 289.7h3.9906v-2.7954h0.43462v6.5885h-0.43462v-3.398h-3.9906v3.398h-0.43462v-6.5885h0.43462v2.7954z"/>
   <path id="path5685" d="m27.24 289.46v2.4299q0 0.21731 0.02963 0.50376 0.03951 0.27658 0.22719 0.50377t0.42474 0.27658q0.23707 0.0494 0.37536 0.0494t0.37536-0.0494 0.42474-0.27658q0.18768-0.22719 0.21731-0.50377 0.03951-0.28645 0.03951-0.50376v-2.4299h0.39511v2.5386q0 0.24695-0.04939 0.54328t-0.25682 0.56303q-0.22719 0.29634-0.55316 0.39511-0.32597 0.0988-0.59267 0.0988t-0.59267-0.0988-0.55316-0.39511q-0.20743-0.2667-0.25682-0.56303t-0.04939-0.54328v-2.5386h0.39511z"/>
   <path id="path5687" d="m31.166 289.46h0.39511v0.52352q0.10866-0.25682 0.33584-0.43462 0.22719-0.1778 0.55316-0.1778 0.07902 0 0.19756 0.0198 0.11853 0.0197 0.22719 0.079l-0.19756 0.3556q-0.02963-0.0198-0.09878-0.0494-0.05927-0.0296-0.19756-0.0296-0.30621 0-0.47413 0.1778-0.15804 0.1778-0.23707 0.42474-0.07902 0.24695-0.09878 0.52352-0.0099 0.2667-0.0099 0.45438v2.1632h-0.39511v-4.0301z"/>
   <path id="path5689" d="m34.157 289.84v3.6548h-0.39511v-3.6548h-0.4445v-0.37536h0.4445v-1.4422h0.39511v1.4422h0.70132v0.37536h-0.70132z"/>
   <path id="path5691" d="m36.037 289.46v4.0301h-0.39511v-4.0301h0.39511zm-0.19756-0.9779q-0.14817 0-0.25682-0.0988-0.09878-0.0988-0.09878-0.2667 0-0.16792 0.09878-0.2667 0.10866-0.0988 0.25682-0.0988 0.14817 0 0.24694 0.0988 0.10866 0.0988 0.10866 0.2667 0 0.16793-0.10866 0.2667-0.09878 0.0988-0.24694 0.0988z"/>
   <path id="path5693" d="m41.17 289.46v3.9116q0 1.1458-0.5334 1.7681t-1.4915 0.6223q-0.39511 0-0.75071-0.11853-0.34572-0.10865-0.61242-0.32597-0.2667-0.21731-0.43462-0.54327-0.15804-0.32597-0.1778-0.74084h0.41487q0.04939 0.63218 0.48401 0.98778 0.43462 0.36548 1.0767 0.36548 0.59267 0 0.91863-0.25682 0.33584-0.25683 0.49389-0.60255 0.15804-0.33584 0.18768-0.67169 0.02963-0.32596 0.02963-0.48401v-0.57291q-0.30621 0.42475-0.73096 0.61242-0.42474 0.18768-0.85937 0.18768-0.37536 0-0.73096-0.12841-0.3556-0.13829-0.63218-0.40499t-0.45438-0.66181q-0.16792-0.40499-0.16792-0.92851 0-0.43462 0.13829-0.81986 0.13829-0.38523 0.40499-0.67169 0.2667-0.28645 0.64206-0.4445 0.37536-0.16792 0.84949-0.16792 0.50377 0 0.889 0.20744 0.39511 0.20743 0.65193 0.58278v-0.70132h0.39511zm-1.9756 0.28646q-0.37536 0-0.67169 0.14816-0.28646 0.13829-0.49389 0.38524-0.19756 0.23706-0.30621 0.55315-0.10866 0.31609-0.10866 0.66181 0 0.36548 0.10866 0.68157t0.31609 0.55316q0.20743 0.22719 0.49389 0.36547 0.28646 0.12842 0.64206 0.12842 0.37536 0 0.67169-0.13829 0.30621-0.13829 0.51364-0.37536t0.31609-0.55315q0.11853-0.32597 0.11853-0.70133 0-0.3556-0.11853-0.66181-0.10866-0.31609-0.31609-0.54328-0.20743-0.23706-0.50377-0.36547-0.29633-0.13829-0.66181-0.13829z"/>
   <path id="path5695" d="m44.883 286.29h0.39511v3.8029q0.06914-0.12841 0.1778-0.25682t0.25682-0.22719q0.14817-0.10866 0.34572-0.16792 0.19756-0.0692 0.45438-0.0692 0.2667 0 0.46426 0.0692 0.19756 0.0691 0.32597 0.16792 0.13829 0.0889 0.21731 0.18768 0.07902 0.0889 0.10866 0.13829 0.13829 0.21731 0.16792 0.48401t0.02963 0.5334v2.5386h-0.39511v-2.5386q0-0.20744-0.02963-0.42475-0.01975-0.21731-0.12841-0.38523-0.06914-0.10866-0.24694-0.24695-0.1778-0.14816-0.54328-0.14816-0.41487 0-0.65193 0.18768-0.22719 0.1778-0.33584 0.37535-0.13829 0.23707-0.1778 0.51365-0.03951 0.27657-0.03951 0.57291v2.0941h-0.39511v-7.2009z"/>
   <path id="path5697" d="m52.523 289.46h0.39511v4.0301h-0.39511v-0.72108q-0.30621 0.46425-0.74083 0.65193-0.43462 0.1778-0.82973 0.1778t-0.75071-0.13829q-0.3556-0.14816-0.63218-0.42474-0.2667-0.27658-0.42474-0.67169t-0.15804-0.889q0-0.46426 0.13829-0.84949 0.14817-0.39511 0.40499-0.67169t0.61242-0.42474q0.36548-0.15805 0.80998-0.15805 0.47413 0 0.87912 0.18768t0.69144 0.60254v-0.70132zm-1.5508 0.28646q-0.29633 0-0.58279 0.11853-0.28646 0.10866-0.50377 0.32597-0.21731 0.20743-0.3556 0.52352-0.12841 0.31609-0.12841 0.73096 0 0.34572 0.09878 0.66181 0.10866 0.31609 0.30621 0.57291 0.20743 0.24694 0.49389 0.39511 0.29633 0.14817 0.68157 0.14817 0.37536 0 0.66181-0.14817 0.29633-0.14817 0.49389-0.39511 0.19756-0.24695 0.29633-0.56304 0.10866-0.32596 0.10866-0.67168 0-0.4445-0.14817-0.76059-0.14817-0.32597-0.38523-0.5334-0.22719-0.20744-0.50377-0.30621-0.27658-0.0988-0.5334-0.0988zm-0.59267-1.6792q0-0.32597 0.21731-0.54328t0.54328-0.21731 0.54328 0.21731 0.21731 0.54328q0 0.32596-0.21731 0.54327t-0.54328 0.21731-0.54328-0.21731-0.21731-0.54327zm0.3556 0q0 0.1778 0.10866 0.29633 0.11853 0.10865 0.29633 0.10865t0.28646-0.10865q0.11853-0.11853 0.11853-0.29633t-0.11853-0.28646q-0.10866-0.11853-0.28646-0.11853t-0.29633 0.11853q-0.10866 0.10866-0.10866 0.28646z"/>
   <path id="path5699" d="m54.337 289.46h0.39511v0.63218q0.06914-0.12841 0.1778-0.25682t0.25682-0.22719q0.14817-0.10866 0.34572-0.16792 0.19756-0.0692 0.45438-0.0692 0.2667 0 0.46426 0.0692 0.19756 0.0691 0.32597 0.16792 0.13829 0.0889 0.21731 0.18768 0.07902 0.0889 0.10866 0.13829 0.13829 0.21731 0.16792 0.48401t0.02963 0.5334v2.5386h-0.39511v-2.5386q0-0.20744-0.02963-0.42475-0.01976-0.21731-0.12841-0.38523-0.06914-0.10866-0.24694-0.24695-0.1778-0.14816-0.54328-0.14816-0.41487 0-0.65193 0.18768-0.22719 0.1778-0.33584 0.37535-0.13829 0.23707-0.1778 0.51365-0.03951 0.27657-0.03951 0.57291v2.0941h-0.39511v-4.0301z"/>
   <path id="path5701" d="m61.976 286.29h0.39511v7.2009h-0.39511v-0.72108q-0.14817 0.23706-0.34572 0.39511-0.18768 0.15804-0.39511 0.25682-0.20743 0.0889-0.42474 0.12841-0.20743 0.0494-0.39511 0.0494-0.38523 0-0.74083-0.13829t-0.63218-0.40499q-0.2667-0.2667-0.43462-0.66181-0.16792-0.40499-0.16792-0.93839 0-0.55315 0.16792-0.94826 0.1778-0.39511 0.45438-0.64206 0.27658-0.25682 0.63218-0.37535 0.3556-0.11854 0.72108-0.11854 0.55316 0 0.93839 0.22719 0.38523 0.21731 0.6223 0.56303v-3.8721zm-1.5607 3.4572q-0.31609 0-0.60254 0.10865-0.27658 0.10866-0.49389 0.32597-0.20743 0.20743-0.33584 0.52352t-0.12841 0.74084q0 0.4445 0.12841 0.78034 0.13829 0.32597 0.3556 0.55316 0.22719 0.21731 0.50377 0.33584 0.28646 0.10866 0.59267 0.10866 0.29633 0 0.57291-0.10866 0.28646-0.11853 0.50377-0.33584 0.21731-0.22719 0.34572-0.55316 0.13829-0.33584 0.13829-0.78034 0-0.3556-0.10866-0.66182-0.10866-0.30621-0.31609-0.5334-0.19756-0.23706-0.49389-0.36547-0.28646-0.13829-0.66181-0.13829z"/>
   <path id="path5703" d="m64.215 289.84v3.6548h-0.39511v-3.6548h-0.4445v-0.37536h0.4445v-1.4422h0.39511v1.4422h0.70132v0.37536h-0.70132z"/>
   <path id="path5705" d="m65.858 291.53q-0.01976 0.38523 0.10866 0.70132 0.12841 0.31609 0.3556 0.54328 0.22719 0.21731 0.52352 0.33584 0.29633 0.11854 0.61242 0.11854 0.49389 0 0.84949-0.25683 0.3556-0.25682 0.55316-0.66181l0.33584 0.19756q-0.0889 0.16792-0.23707 0.36548-0.14817 0.18767-0.36548 0.3556-0.20743 0.15804-0.50377 0.2667-0.28646 0.10865-0.66181 0.10865-0.47413 0-0.83961-0.15804-0.36548-0.16793-0.6223-0.45438-0.25682-0.28646-0.39511-0.66181-0.12841-0.38524-0.12841-0.82974 0-0.52352 0.16792-0.91863 0.16792-0.40499 0.43462-0.67169 0.27658-0.2667 0.6223-0.39511 0.3556-0.13829 0.73096-0.13829 0.40499 0 0.76059 0.15805 0.3556 0.15804 0.61242 0.4445 0.25682 0.27657 0.39511 0.67169 0.14817 0.39511 0.13829 0.87912h-3.4473zm3.0325-0.37536q-0.03951-0.29633-0.16792-0.55315-0.11853-0.25683-0.31609-0.4445-0.19756-0.18768-0.45438-0.29634-0.25682-0.10865-0.55316-0.10865-0.30621 0-0.57291 0.10865-0.25682 0.10866-0.45438 0.30621-0.18768 0.18768-0.31609 0.4445-0.12841 0.24695-0.16792 0.54328h3.0028z"/>
   <path id="path5707" d="m70.465 289.46h0.39511v0.52352q0.10866-0.25682 0.33584-0.43462 0.22719-0.1778 0.55316-0.1778 0.07902 0 0.19756 0.0198 0.11853 0.0197 0.22719 0.079l-0.19756 0.3556q-0.02963-0.0198-0.09878-0.0494-0.05927-0.0296-0.19756-0.0296-0.30621 0-0.47413 0.1778-0.15804 0.1778-0.23707 0.42474-0.07902 0.24695-0.09878 0.52352-0.0099 0.2667-0.0099 0.45438v2.1632h-0.39511v-4.0301z"/>
   <path id="path5709" d="m73.426 289.46v4.0301h-0.39511v-4.0301h0.39511zm-0.19756-0.9779q-0.14817 0-0.25682-0.0988-0.09878-0.0988-0.09878-0.2667 0-0.16792 0.09878-0.2667 0.10866-0.0988 0.25682-0.0988 0.14817 0 0.24694 0.0988 0.10866 0.0988 0.10866 0.2667 0 0.16793-0.10866 0.2667-0.09878 0.0988-0.24694 0.0988z"/>
   <path id="path5711" d="m74.845 289.46h0.39511v0.63218q0.06915-0.12841 0.1778-0.25682 0.10866-0.12841 0.25682-0.22719 0.14817-0.10866 0.34572-0.16792 0.19756-0.0692 0.45438-0.0692 0.2667 0 0.46426 0.0692 0.19756 0.0691 0.32597 0.16792 0.13829 0.0889 0.21731 0.18768 0.07902 0.0889 0.10866 0.13829 0.13829 0.21731 0.16792 0.48401t0.02963 0.5334v2.5386h-0.39511v-2.5386q0-0.20744-0.02963-0.42475-0.01976-0.21731-0.12841-0.38523-0.06915-0.10866-0.24694-0.24695-0.1778-0.14816-0.54328-0.14816-0.41487 0-0.65193 0.18768-0.22719 0.1778-0.33584 0.37535-0.13829 0.23707-0.1778 0.51365-0.03951 0.27657-0.03951 0.57291v2.0941h-0.39511v-4.0301z"/>
   <path id="path5713" d="m82.919 289.46v3.9116q0 1.1458-0.5334 1.7681t-1.4915 0.6223q-0.39511 0-0.75071-0.11853-0.34572-0.10865-0.61242-0.32597-0.2667-0.21731-0.43462-0.54327-0.15804-0.32597-0.1778-0.74084h0.41487q0.04939 0.63218 0.48401 0.98778 0.43462 0.36548 1.0767 0.36548 0.59267 0 0.91863-0.25682 0.33584-0.25683 0.49389-0.60255 0.15804-0.33584 0.18768-0.67169 0.02963-0.32596 0.02963-0.48401v-0.57291q-0.30621 0.42475-0.73096 0.61242-0.42474 0.18768-0.85937 0.18768-0.37536 0-0.73096-0.12841-0.3556-0.13829-0.63218-0.40499t-0.45438-0.66181q-0.16792-0.40499-0.16792-0.92851 0-0.43462 0.13829-0.81986 0.13829-0.38523 0.40499-0.67169 0.2667-0.28645 0.64206-0.4445 0.37536-0.16792 0.84949-0.16792 0.50377 0 0.889 0.20744 0.39511 0.20743 0.65193 0.58278v-0.70132h0.39511zm-1.9756 0.28646q-0.37536 0-0.67169 0.14816-0.28646 0.13829-0.49389 0.38524-0.19756 0.23706-0.30621 0.55315-0.10866 0.31609-0.10866 0.66181 0 0.36548 0.10866 0.68157t0.31609 0.55316q0.20743 0.22719 0.49389 0.36547 0.28646 0.12842 0.64206 0.12842 0.37536 0 0.67169-0.13829 0.30621-0.13829 0.51364-0.37536t0.31609-0.55315q0.11853-0.32597 0.11853-0.70133 0-0.3556-0.11853-0.66181-0.10866-0.31609-0.31609-0.54328-0.20743-0.23706-0.50377-0.36547-0.29633-0.13829-0.66181-0.13829z"/>
  </g>
 </g>
 <style id="style4593" type="text/css">.st0{fill:#3E82F7;}
	.st1{fill:#3E82F7;stroke:#FFFFFF;stroke-width:28;stroke-miterlimit:10;}
	.st2{fill:#FFFFFF;stroke:#FFFFFF;stroke-width:20;stroke-miterlimit:10;}
	.st3{fill:#2F5FB8;stroke:#2F5FB8;stroke-width:7;stroke-linecap:round;stroke-linejoin:round;stroke-miterlimit:10;}
	.st4{fill:#39B54A;}
	.st5{fill:#E6E6E6;}</style>
</svg>
