<?xml version="1.0" encoding="UTF-8"?>
<svg width="100" height="100" version="1.1" viewBox="0 0 26.458332 26.458334" xmlns="http://www.w3.org/2000/svg">
 <g transform="translate(0 -270.54)">
  <g transform="matrix(.24178 0 0 .24178 .89805 271.58)" fill="#4c4c4c">
   <path d="m94.233 61.683c-1.341-0.435-2.793 0.293-3.228 1.633-7.09 21.455-30.306 33.138-51.76 26.043-21.454-7.11-33.137-30.323-26.044-51.778 7.092-21.438 30.305-33.118 51.76-26.026 6.892 2.285 12.858 6.257 17.593 11.553l-7.617-1.251c-1.414-0.235-2.72 0.708-2.938 2.104-0.236 1.396 0.706 2.72 2.103 2.938l14.058 2.32c1.47 0.237 2.702-0.725 2.937-2.103l2.322-14.055c0.236-1.396-0.708-2.721-2.104-2.938-1.414-0.235-2.72 0.707-2.938 2.104l-1.359 8.198c-5.423-6.294-12.498-11.1-20.459-13.729-24.121-7.981-50.237 5.15-58.218 29.29-7.979 24.122 5.098 50.474 29.292 58.238 24.917 7.979 50.236-5.786 58.234-29.292 0.453-1.363-0.291-2.813-1.634-3.249z" fill="#4c4c4c"/>
   <path d="m80.539 35.654c-0.039-0.157-0.095-0.311-0.163-0.461-0.293-0.621-0.853-1.085-1.509-1.258l-24.863-12.06c-0.643-0.311-1.438-0.311-2.08 0l-25.19 12.209c-0.793 0.377-1.311 1.165-1.35 2.056l-2e-3 30.748c0 0.913 0.532 1.755 1.348 2.144l25.1 12.165 0.039 0.037 0.132 0.044 0.176 0.117h0.137l0.127 0.063h0.117l0.076 0.024h0.163-7e-3c0.065 5e-3 0.127 0.01 0.183 0.01 0.057 0 0.142 0 0.242-0.013 0.078-2e-3 0.161-0.015 0.244-0.036l0.093-0.024c0.017-5e-3 0.031-0.01 0.049-0.015h0.036l0.154-0.062c0.039-0.012 0.1-0.036 0.173-0.07 0.039-0.015 0.078-0.034 0.117-0.059l25.21-12.222c0.815-0.396 1.343-1.238 1.343-2.139v-31.151zm-29.961 14.313v25.329l-20.437-9.907v-25.331zm4.759 0 8.63-4.188v10.738c0 1.313 1.067 2.378 2.381 2.378 1.311 0 2.378-1.064 2.378-2.378v-13.054l7.124-3.455v25.332l-20.513 9.956zm-8.342-20.414 5.964-2.896 19.768 9.584-5.964 2.896zm14.314 12.226-8.35 4.046-19.768-9.583 8.352-4.048z"/>
  </g>
 </g>
</svg>
